<svg width="488" height="160" viewBox="0 0 488 160" fill="none" xmlns="http://www.w3.org/2000/svg">
<circle cx="50.5" cy="50.5" r="32.5" fill="#78D701"/>
<path d="M122.271 132.635C135.244 125.777 143.454 115.855 140.61 110.474C137.765 105.094 124.942 106.292 111.97 113.151C98.997 120.01 90.7867 129.931 93.6313 135.312C96.476 140.692 109.299 139.494 122.271 132.635Z" fill="white" stroke="#231815" stroke-width="8" stroke-linecap="round" stroke-linejoin="round"/>
<path d="M107.926 134.188L96.5555 116.297L95.2417 116.914C91.9997 118.433 88.3544 118.866 84.8465 118.15C81.3386 117.434 78.1551 115.606 75.7681 112.938C69.7693 108.321 64.6241 106.934 61.0047 106.532C55.3359 105.915 50.8997 107.433 47.9973 104.481C47.2422 103.695 46.6784 102.746 46.3497 101.707C46.021 100.667 45.9363 99.5665 46.1022 98.4894C47.1016 93.5537 54.0705 87.7444 66.368 87.7717C62.9263 84.4145 47.7828 69.4004 45.6651 58.3247C45.3433 56.7136 44.78 53.6185 46.5325 51.2916C48.5216 48.6428 52.6211 48.1904 55.5036 48.7736C59.0582 49.4813 60.9091 51.7873 64.3454 55.3346C68.2254 59.3378 72.3289 63.1183 76.6361 66.6578C81.7884 60.7323 93.125 63.7221 95.6651 69.926C102.604 67.4751 111.699 71.6386 114.256 78.516C118.413 87.8717 123.346 97.4086 126.22 103.047C129.685 109.848 134.38 120.066 134.38 120.066" fill="white"/>
<path d="M49.7964 44.9201C52.0329 44.4119 54.3535 44.4598 56.2964 44.8529L56.2954 44.8538C61.3652 45.8674 64.1981 49.4332 67.2177 52.5503L68.6438 54.0015C71.2254 56.5908 73.9071 59.0778 76.6782 61.4626C80.1733 59.3602 84.3782 59.0924 87.9378 59.826C91.4627 60.5525 95.1466 62.4205 97.5524 65.3785C101.242 64.8728 105.024 65.5909 108.278 67.0897C112.44 69.0071 116.196 72.4152 117.943 76.9639C122.041 86.1775 126.9 95.5733 129.783 101.231C131.544 104.687 133.606 108.986 135.217 112.399C136.024 114.11 136.723 115.608 137.219 116.678C137.468 117.213 137.667 117.641 137.803 117.937C137.871 118.084 137.924 118.199 137.96 118.276C137.978 118.315 137.99 118.345 138 118.365C138.004 118.375 138.008 118.382 138.011 118.387L138.014 118.395L138.015 118.395C138.937 120.403 138.057 122.778 136.049 123.7C134.105 124.594 131.815 123.796 130.836 121.92L130.745 121.736L130.745 121.735C130.744 121.734 130.743 121.732 130.742 121.73C130.74 121.725 130.736 121.718 130.732 121.708C130.723 121.689 130.71 121.66 130.693 121.623C130.658 121.547 130.607 121.435 130.54 121.29C130.406 121 130.21 120.576 129.965 120.047C129.473 118.989 128.781 117.507 127.982 115.814C126.379 112.418 124.36 108.208 122.656 104.864C119.8 99.2588 114.81 89.6149 110.6 80.1405C110.566 80.0646 110.535 79.9874 110.506 79.9096C109.67 77.6608 107.641 75.6048 104.931 74.3562C102.221 73.1079 99.2996 72.8844 96.997 73.6976C94.986 74.4078 92.7717 73.4153 91.9636 71.4416C91.3629 69.9743 89.3065 68.2761 86.3231 67.6611C83.4171 67.0623 80.9765 67.7625 79.6548 69.2824C78.2337 70.9168 75.7699 71.1229 74.0966 69.7479C69.6729 66.1126 65.4578 62.2304 61.4728 58.1188L61.4719 58.1178C57.6215 54.143 56.7542 53.1016 54.7222 52.6971L54.7107 52.6942C53.7712 52.5041 52.6004 52.4871 51.5694 52.7214C50.5303 52.9576 49.9819 53.3585 49.7306 53.6932L49.7273 53.6978C49.5102 53.9861 49.3423 54.4411 49.3196 55.1963C49.3021 55.777 49.3738 56.3668 49.4767 56.9548L49.5872 57.5417L49.5935 57.5736C50.4485 62.0455 54.1653 67.8902 58.6337 73.4325C62.9628 78.802 67.4734 83.2627 69.1605 84.9084C70.3263 86.0455 70.6865 87.776 70.071 89.2837C69.4555 90.7912 67.9876 91.7756 66.3593 91.7721C60.8341 91.7598 56.761 93.0582 54.0737 94.6888C51.3758 96.326 50.2932 98.1344 50.0422 99.202C49.9901 99.6381 50.0304 100.081 50.163 100.5C50.3039 100.946 50.5452 101.353 50.8664 101.692C51.2077 102.032 51.7318 102.328 53.5852 102.384C54.5767 102.415 55.5505 102.377 56.9589 102.366C58.2769 102.356 59.7948 102.377 61.4377 102.555L61.4464 102.556C65.6022 103.017 71.2216 104.57 77.589 109.299L78.2078 109.768L78.3512 109.884C78.4454 109.964 78.5365 110.047 78.6229 110.135L79.0964 110.644C80.8662 112.469 83.1485 113.721 85.6469 114.231C88.312 114.775 91.0816 114.446 93.5447 113.291L94.8561 112.676C96.6781 111.821 98.8512 112.453 99.9308 114.152L111.302 132.042C112.487 133.907 111.936 136.379 110.071 137.564C108.207 138.749 105.735 138.198 104.55 136.333L95.0102 121.323C91.5023 122.553 87.7141 122.818 84.0467 122.069C79.8284 121.208 75.988 119.05 73.0599 115.903C67.8103 111.938 63.4717 110.831 60.5719 110.508L60.5718 110.509C59.3804 110.379 58.2178 110.357 57.019 110.366C55.9107 110.375 54.5309 110.416 53.342 110.38C50.8639 110.304 47.7062 109.89 45.1451 107.285C45.1345 107.274 45.1239 107.263 45.1134 107.252C43.9323 106.023 43.0496 104.538 42.5355 102.913C42.0213 101.288 41.8897 99.5652 42.1492 97.8805L42.1816 97.696C42.9674 93.8156 45.8824 90.3021 49.9228 87.8501C52.146 86.501 54.7881 85.4163 57.813 84.7058C56.1212 82.8671 54.2509 80.7421 52.4058 78.4537C47.9199 72.8897 43.0162 65.7027 41.7438 59.1076L41.7428 59.1085C41.4666 57.7254 40.3676 52.828 43.3372 48.8851C45.0747 46.574 47.5695 45.4263 49.7964 44.9201Z" fill="#231815"/>
<path d="M94.2138 132.542L98.0069 122.815L107.847 137.653L96.883 136.77L94.2138 132.542Z" fill="#231815"/>
<path d="M140.617 110.696L134.831 120.263L128.318 107.699L140.617 110.696Z" fill="#231815"/>
<path d="M441.709 118C437.109 118 433.009 116.9 429.409 114.7C425.876 112.5 423.076 109.5 421.009 105.7C419.009 101.9 418.009 97.5667 418.009 92.7C418.009 87.8334 419.009 83.5 421.009 79.7C423.076 75.9 425.876 72.9 429.409 70.7C433.009 68.5 437.109 67.4 441.709 67.4C445.043 67.4 448.043 68.0334 450.709 69.3C453.443 70.5667 455.676 72.3334 457.409 74.6C459.209 76.8 460.209 79.3334 460.409 82.2V102.7C460.209 105.567 459.243 108.167 457.509 110.5C455.776 112.767 453.543 114.6 450.809 116C448.076 117.333 445.043 118 441.709 118ZM444.409 104.2C446.609 104.2 448.509 103.733 450.109 102.8C451.709 101.8 452.976 100.433 453.909 98.7C454.843 96.9667 455.309 94.9667 455.309 92.7C455.309 90.4334 454.843 88.4667 453.909 86.8C453.043 85.0667 451.776 83.7 450.109 82.7C448.509 81.7 446.643 81.2 444.509 81.2C442.376 81.2 440.476 81.7 438.809 82.7C437.209 83.7 435.909 85.0667 434.909 86.8C433.976 88.5334 433.509 90.5 433.509 92.7C433.509 94.9 433.976 96.8667 434.909 98.6C435.843 100.333 437.143 101.7 438.809 102.7C440.476 103.7 442.343 104.2 444.409 104.2ZM469.709 117H454.709V103.9L457.009 92.1L454.409 80.3V44.4H469.709V117Z" fill="black"/>
<path d="M394.935 117V68.4H410.235V117H394.935ZM402.635 61.7C400.235 61.7 398.235 60.9 396.635 59.3C395.102 57.6334 394.335 55.6334 394.335 53.3C394.335 50.9 395.102 48.9 396.635 47.3C398.235 45.7 400.235 44.9 402.635 44.9C405.035 44.9 407.002 45.7 408.535 47.3C410.069 48.9 410.835 50.9 410.835 53.3C410.835 55.6334 410.069 57.6334 408.535 59.3C407.002 60.9 405.035 61.7 402.635 61.7Z" fill="black"/>
<path d="M356.524 117L335.924 68.4H352.424L366.424 108.9H359.224L373.224 68.4H389.424L368.824 117H356.524Z" fill="black"/>
<path d="M311.119 118C307.852 118 304.852 117.367 302.119 116.1C299.385 114.833 297.152 113.1 295.419 110.9C293.685 108.633 292.685 106.067 292.419 103.2V82.7C292.685 79.8334 293.685 77.2334 295.419 74.9C297.152 72.5667 299.385 70.7334 302.119 69.4C304.852 68.0667 307.852 67.4 311.119 67.4C315.719 67.4 319.785 68.5 323.319 70.7C326.919 72.9 329.719 75.9 331.719 79.7C333.785 83.5 334.819 87.8334 334.819 92.7C334.819 97.5667 333.785 101.9 331.719 105.7C329.719 109.5 326.919 112.5 323.319 114.7C319.785 116.9 315.719 118 311.119 118ZM283.119 137.5V68.4H298.419V80.9L295.919 92.7L298.219 104.5V137.5H283.119ZM308.319 104.2C310.519 104.2 312.419 103.7 314.019 102.7C315.685 101.7 316.985 100.333 317.919 98.6C318.852 96.8667 319.319 94.9 319.319 92.7C319.319 90.4334 318.852 88.4334 317.919 86.7C316.985 84.9667 315.685 83.6334 314.019 82.7C312.419 81.7 310.552 81.2 308.419 81.2C306.285 81.2 304.385 81.7 302.719 82.7C301.119 83.6334 299.852 84.9667 298.919 86.7C297.985 88.4334 297.519 90.4334 297.519 92.7C297.519 94.9 297.952 96.8667 298.819 98.6C299.752 100.333 301.052 101.7 302.719 102.7C304.385 103.7 306.252 104.2 308.319 104.2Z" fill="black"/>
<path d="M243.946 118C239.479 118 235.479 116.9 231.946 114.7C228.479 112.5 225.713 109.5 223.646 105.7C221.646 101.9 220.646 97.5667 220.646 92.7C220.646 87.8334 221.646 83.5 223.646 79.7C225.713 75.9 228.479 72.9 231.946 70.7C235.479 68.5 239.479 67.4 243.946 67.4C247.213 67.4 250.146 68.0334 252.746 69.3C255.413 70.5667 257.579 72.3334 259.246 74.6C260.913 76.8 261.846 79.3334 262.046 82.2V103.2C261.846 106.067 260.913 108.633 259.246 110.9C257.646 113.1 255.513 114.833 252.846 116.1C250.179 117.367 247.213 118 243.946 118ZM247.046 104.2C250.313 104.2 252.946 103.133 254.946 101C256.946 98.8 257.946 96.0334 257.946 92.7C257.946 90.4334 257.479 88.4334 256.546 86.7C255.679 84.9667 254.413 83.6334 252.746 82.7C251.146 81.7 249.279 81.2 247.146 81.2C245.013 81.2 243.113 81.7 241.446 82.7C239.846 83.6334 238.546 84.9667 237.546 86.7C236.613 88.4334 236.146 90.4334 236.146 92.7C236.146 94.9 236.613 96.8667 237.546 98.6C238.479 100.333 239.779 101.7 241.446 102.7C243.113 103.7 244.979 104.2 247.046 104.2ZM257.346 117V103.9L259.646 92.1L257.346 80.3V68.4H272.346V117H257.346Z" fill="black"/>
<path d="M190.1 117V47.4H205.8V117H190.1ZM168 60.1V46.4H227.9V60.1H168Z" fill="black"/>
</svg>
